<svg xmlns="http://www.w3.org/2000/svg" xmlns:xlink="http://www.w3.org/1999/xlink" width="100" zoomAndPan="magnify" viewBox="0 0 75 54" height="72" preserveAspectRatio="xMidYMid meet" version="1.0"><defs><g/><clipPath id="id1"><path d="M 0.683594 0 L 74.316406 0 L 74.316406 53.019531 L 0.683594 53.019531 Z M 0.683594 0 " clip-rule="nonzero"/></clipPath><clipPath id="id2"><path d="M 26.371094 3 L 48.460938 3 L 48.460938 35.980469 L 26.371094 35.980469 Z M 26.371094 3 " clip-rule="nonzero"/></clipPath><clipPath id="id3"><path d="M 26.371094 2.84375 L 48.460938 2.84375 L 48.460938 35.980469 L 26.371094 35.980469 Z M 26.371094 2.84375 " clip-rule="nonzero"/></clipPath></defs><g clip-path="url(#id1)"><path fill="#ffffff" d="M 0.683594 0 L 74.316406 0 L 74.316406 60.382812 L 0.683594 60.382812 Z M 0.683594 0 " fill-opacity="1" fill-rule="nonzero"/><path fill="#000b26" d="M 0.683594 0 L 74.316406 0 L 74.316406 53.019531 L 0.683594 53.019531 Z M 0.683594 0 " fill-opacity="1" fill-rule="nonzero"/><path fill="#ffffff" d="M 0.683594 0 L 74.316406 0 L 74.316406 53.019531 L 0.683594 53.019531 Z M 0.683594 0 " fill-opacity="1" fill-rule="nonzero"/><path fill="#000b26" d="M 0.683594 0 L 74.316406 0 L 74.316406 53.019531 L 0.683594 53.019531 Z M 0.683594 0 " fill-opacity="1" fill-rule="nonzero"/></g><g clip-path="url(#id2)"><path fill="#ffffff" d="M 37.433594 3.007812 C 37.421875 3.007812 37.414062 3.007812 37.40625 3.007812 C 37.394531 3.007812 37.386719 3.007812 37.375 3.007812 C 31.394531 3.015625 26.546875 7.867188 26.558594 13.84375 C 26.558594 15.144531 27.207031 18.1875 28.679688 20.792969 C 30.519531 24.046875 36.546875 34.765625 37.40625 35.777344 C 37.40625 35.777344 37.425781 35.824219 37.4375 35.8125 C 37.449219 35.824219 37.464844 35.777344 37.464844 35.777344 C 38.324219 34.761719 44.28125 24 46.171875 20.773438 C 47.742188 18.089844 48.277344 15.121094 48.277344 13.820312 C 48.269531 7.84375 43.414062 3.003906 37.433594 3.007812 " fill-opacity="1" fill-rule="nonzero"/></g><g clip-path="url(#id3)"><path fill="#ffa500" d="M 37.433594 3.007812 L 37.433594 2.84375 C 37.421875 2.84375 37.414062 2.84375 37.40625 2.84375 C 37.394531 2.84375 37.386719 2.84375 37.375 2.84375 C 31.308594 2.851562 26.390625 7.769531 26.390625 13.828125 L 26.390625 13.847656 L 26.558594 13.84375 L 26.390625 13.84375 C 26.390625 14.183594 26.433594 14.625 26.519531 15.140625 C 26.773438 16.683594 27.417969 18.898438 28.535156 20.875 C 29.453125 22.5 31.421875 25.996094 33.265625 29.207031 C 34.1875 30.816406 35.082031 32.351562 35.796875 33.550781 C 36.15625 34.152344 36.46875 34.667969 36.722656 35.0625 C 36.847656 35.265625 36.957031 35.433594 37.050781 35.570312 C 37.144531 35.707031 37.21875 35.8125 37.28125 35.882812 L 37.40625 35.777344 L 37.253906 35.839844 C 37.257812 35.84375 37.261719 35.859375 37.273438 35.875 C 37.277344 35.886719 37.285156 35.898438 37.300781 35.914062 C 37.304688 35.925781 37.316406 35.933594 37.335938 35.949219 C 37.34375 35.953125 37.355469 35.960938 37.371094 35.96875 C 37.386719 35.972656 37.410156 35.980469 37.433594 35.980469 C 37.460938 35.980469 37.488281 35.972656 37.507812 35.960938 C 37.53125 35.953125 37.546875 35.9375 37.558594 35.925781 L 37.4375 35.8125 L 37.3125 35.921875 C 37.324219 35.9375 37.34375 35.949219 37.367188 35.960938 C 37.390625 35.972656 37.417969 35.980469 37.441406 35.980469 C 37.46875 35.980469 37.488281 35.972656 37.503906 35.96875 C 37.535156 35.953125 37.550781 35.941406 37.5625 35.929688 C 37.582031 35.910156 37.589844 35.898438 37.597656 35.886719 C 37.605469 35.871094 37.609375 35.859375 37.613281 35.851562 C 37.617188 35.84375 37.621094 35.835938 37.621094 35.835938 L 37.464844 35.777344 L 37.59375 35.882812 C 37.652344 35.8125 37.726562 35.707031 37.820312 35.570312 C 38.167969 35.054688 38.757812 34.070312 39.480469 32.832031 C 41.644531 29.117188 44.984375 23.121094 46.3125 20.855469 C 47.109375 19.5 47.640625 18.074219 47.972656 16.824219 C 48.304688 15.570312 48.441406 14.492188 48.441406 13.824219 L 48.441406 13.816406 L 48.28125 13.820312 L 48.4375 13.859375 C 48.445312 13.828125 48.441406 13.816406 48.441406 13.816406 L 48.28125 13.820312 L 48.4375 13.859375 C 48.441406 13.847656 48.441406 13.835938 48.441406 13.820312 C 48.4375 7.753906 43.511719 2.84375 37.445312 2.84375 L 37.429688 2.84375 L 37.433594 3.007812 L 37.433594 2.84375 L 37.433594 3.175781 L 37.445312 3.175781 C 43.332031 3.175781 48.105469 7.9375 48.113281 13.820312 L 48.277344 13.820312 L 48.117188 13.78125 C 48.109375 13.804688 48.113281 13.816406 48.113281 13.820312 L 48.113281 13.824219 L 48.261719 13.820312 L 48.113281 13.824219 L 48.261719 13.820312 L 48.113281 13.824219 C 48.113281 14.449219 47.980469 15.511719 47.652344 16.738281 C 47.324219 17.964844 46.804688 19.363281 46.027344 20.6875 C 45.082031 22.304688 43.117188 25.800781 41.285156 29.019531 C 40.371094 30.632812 39.488281 32.171875 38.777344 33.375 C 38.425781 33.972656 38.117188 34.488281 37.867188 34.886719 C 37.742188 35.082031 37.636719 35.25 37.546875 35.382812 C 37.457031 35.515625 37.382812 35.617188 37.339844 35.671875 C 37.324219 35.683594 37.316406 35.703125 37.308594 35.71875 L 37.375 35.742188 L 37.308594 35.71875 L 37.375 35.742188 L 37.308594 35.71875 L 37.308594 35.722656 L 37.371094 35.75 L 37.316406 35.710938 C 37.308594 35.71875 37.308594 35.722656 37.308594 35.722656 L 37.371094 35.75 L 37.316406 35.710938 L 37.429688 35.789062 L 37.339844 35.683594 C 37.324219 35.699219 37.320312 35.707031 37.316406 35.710938 L 37.429688 35.789062 L 37.339844 35.683594 L 37.4375 35.804688 L 37.375 35.664062 C 37.359375 35.671875 37.347656 35.679688 37.339844 35.683594 L 37.4375 35.804688 L 37.375 35.664062 L 37.441406 35.808594 L 37.441406 35.648438 C 37.414062 35.648438 37.390625 35.65625 37.375 35.664062 L 37.441406 35.808594 L 37.441406 35.648438 L 37.441406 35.808594 L 37.511719 35.664062 C 37.492188 35.65625 37.464844 35.648438 37.441406 35.648438 L 37.441406 35.808594 L 37.511719 35.664062 L 37.441406 35.808594 L 37.5625 35.703125 C 37.550781 35.691406 37.535156 35.675781 37.511719 35.664062 L 37.441406 35.808594 L 37.5625 35.703125 C 37.53125 35.667969 37.488281 35.648438 37.441406 35.648438 C 37.394531 35.644531 37.347656 35.664062 37.316406 35.699219 L 37.433594 35.808594 L 37.363281 35.664062 C 37.339844 35.675781 37.328125 35.6875 37.316406 35.699219 L 37.433594 35.808594 L 37.363281 35.664062 L 37.433594 35.808594 L 37.433594 35.648438 C 37.410156 35.648438 37.382812 35.65625 37.363281 35.664062 L 37.433594 35.808594 L 37.433594 35.648438 L 37.433594 35.808594 L 37.492188 35.660156 C 37.476562 35.652344 37.457031 35.648438 37.433594 35.648438 L 37.433594 35.808594 L 37.492188 35.660156 L 37.4375 35.800781 L 37.539062 35.691406 C 37.53125 35.683594 37.519531 35.671875 37.492188 35.660156 L 37.4375 35.800781 L 37.539062 35.691406 L 37.460938 35.777344 L 37.558594 35.710938 C 37.558594 35.707031 37.554688 35.703125 37.539062 35.691406 L 37.460938 35.777344 L 37.558594 35.710938 L 37.523438 35.734375 L 37.5625 35.714844 L 37.558594 35.710938 L 37.523438 35.734375 L 37.5625 35.714844 L 37.558594 35.710938 L 37.492188 35.742188 L 37.558594 35.714844 L 37.558594 35.710938 L 37.492188 35.742188 L 37.558594 35.714844 C 37.554688 35.699219 37.546875 35.683594 37.535156 35.671875 C 37.488281 35.617188 37.414062 35.515625 37.324219 35.382812 C 36.984375 34.886719 36.390625 33.90625 35.664062 32.675781 C 33.480469 28.976562 30.117188 23 28.824219 20.710938 C 28.097656 19.425781 27.570312 18.023438 27.226562 16.785156 C 27.054688 16.167969 26.929688 15.589844 26.847656 15.085938 C 26.761719 14.582031 26.722656 14.15625 26.722656 13.84375 L 26.722656 13.828125 C 26.722656 7.953125 31.492188 3.179688 37.375 3.175781 C 37.386719 3.175781 37.394531 3.175781 37.40625 3.175781 C 37.414062 3.175781 37.421875 3.175781 37.433594 3.175781 L 37.433594 3.007812 " fill-opacity="1" fill-rule="nonzero"/></g><path fill="#ffa500" d="M 45.585938 13.871094 C 45.585938 18.480469 41.84375 22.21875 37.230469 22.21875 C 32.617188 22.21875 28.875 18.480469 28.875 13.871094 C 28.875 9.257812 32.617188 5.523438 37.230469 5.523438 C 41.84375 5.523438 45.585938 9.257812 45.585938 13.871094 " fill-opacity="1" fill-rule="nonzero"/><path fill="#ffa500" d="M 45.585938 13.871094 L 45.417969 13.871094 C 45.417969 16.128906 44.503906 18.175781 43.019531 19.65625 C 41.539062 21.136719 39.492188 22.050781 37.230469 22.050781 C 34.96875 22.050781 32.921875 21.136719 31.441406 19.65625 C 29.957031 18.175781 29.042969 16.128906 29.042969 13.871094 C 29.042969 11.609375 29.957031 9.566406 31.441406 8.082031 C 32.921875 6.601562 34.96875 5.6875 37.230469 5.6875 C 39.492188 5.6875 41.539062 6.601562 43.019531 8.082031 C 44.503906 9.566406 45.417969 11.609375 45.417969 13.871094 L 45.75 13.871094 C 45.75 9.167969 41.9375 5.355469 37.230469 5.355469 C 32.523438 5.355469 28.710938 9.167969 28.710938 13.871094 C 28.710938 18.570312 32.523438 22.382812 37.230469 22.382812 C 41.9375 22.382812 45.75 18.570312 45.75 13.871094 L 45.585938 13.871094 " fill-opacity="1" fill-rule="nonzero"/><path fill="#ffffff" d="M 42.648438 10.675781 L 42.648438 17.21875 L 38.078125 17.21875 C 38.078125 17.21875 37.296875 17.304688 37.191406 17.722656 L 37.1875 17.722656 L 37.191406 17.722656 C 37.191406 17.71875 37.195312 17.695312 37.167969 17.628906 C 36.976562 17.144531 36.257812 17.125 36.257812 17.125 L 31.691406 17.125 L 31.691406 10.675781 L 30.941406 10.675781 L 30.941406 17.914062 L 36.300781 17.914062 C 36.320312 18.117188 36.699219 18.28125 37.167969 18.28125 C 37.636719 18.28125 38.015625 18.117188 38.035156 17.914062 L 43.398438 17.914062 L 43.398438 10.675781 L 42.648438 10.675781 " fill-opacity="1" fill-rule="nonzero"/><path fill="#ffffff" d="M 36.890625 9.835938 C 36.769531 9.730469 36.585938 9.640625 36.3125 9.640625 C 35.699219 9.640625 32.140625 9.640625 32.140625 9.640625 L 32.140625 16.664062 L 36.265625 16.664062 C 36.265625 16.664062 36.636719 16.675781 36.890625 16.867188 L 36.890625 9.835938 " fill-opacity="1" fill-rule="nonzero"/><path fill="#ffffff" d="M 37.445312 9.835938 C 37.566406 9.730469 37.75 9.640625 38.027344 9.640625 C 38.636719 9.640625 42.199219 9.640625 42.199219 9.640625 L 42.199219 16.664062 L 38.070312 16.664062 C 38.070312 16.664062 37.703125 16.675781 37.445312 16.867188 L 37.445312 9.835938 " fill-opacity="1" fill-rule="nonzero"/><g fill="#ffffff" fill-opacity="1"><g transform="translate(3.445532, 48.357683)"><g><path d="M 2.4375 0 L 0.6875 0 L 0.6875 -6.890625 L 2.4375 -6.890625 Z M 2.4375 0 "/></g></g></g><g fill="#ffffff" fill-opacity="1"><g transform="translate(8.051225, 48.357683)"><g><path d="M 7.046875 0 L 5.5 0 L 2.328125 -4.25 L 2.328125 0 L 0.6875 0 L 0.6875 -6.890625 L 2.234375 -6.890625 L 5.421875 -2.640625 L 5.421875 -6.890625 L 7.046875 -6.890625 Z M 7.046875 0 "/></g></g></g><g fill="#ffffff" fill-opacity="1"><g transform="translate(17.260776, 48.357683)"><g><path d="M 5.796875 -5.515625 L 2.4375 -5.515625 L 2.4375 -3.921875 L 5.53125 -3.921875 L 5.53125 -2.546875 L 2.4375 -2.546875 L 2.4375 0 L 0.6875 0 L 0.6875 -6.890625 L 5.796875 -6.890625 Z M 5.796875 -5.515625 "/></g></g></g><g fill="#ffffff" fill-opacity="1"><g transform="translate(24.679933, 48.357683)"><g><path d="M 3.953125 -6.953125 C 5.023438 -6.953125 5.914062 -6.617188 6.625 -5.953125 C 7.332031 -5.285156 7.6875 -4.453125 7.6875 -3.453125 C 7.6875 -2.453125 7.328125 -1.613281 6.609375 -0.9375 C 5.898438 -0.257812 5.015625 0.078125 3.953125 0.078125 C 2.890625 0.078125 2.003906 -0.253906 1.296875 -0.921875 C 0.585938 -1.597656 0.234375 -2.441406 0.234375 -3.453125 C 0.234375 -4.460938 0.585938 -5.296875 1.296875 -5.953125 C 2.003906 -6.617188 2.890625 -6.953125 3.953125 -6.953125 Z M 3.984375 -5.484375 C 3.441406 -5.484375 2.976562 -5.285156 2.59375 -4.890625 C 2.21875 -4.503906 2.03125 -4.019531 2.03125 -3.4375 C 2.03125 -2.863281 2.21875 -2.378906 2.59375 -1.984375 C 2.976562 -1.585938 3.4375 -1.390625 3.96875 -1.390625 C 4.507812 -1.390625 4.960938 -1.585938 5.328125 -1.984375 C 5.703125 -2.378906 5.890625 -2.863281 5.890625 -3.4375 C 5.890625 -4.019531 5.703125 -4.503906 5.328125 -4.890625 C 4.960938 -5.285156 4.515625 -5.484375 3.984375 -5.484375 Z M 3.984375 -5.484375 "/></g></g></g><g fill="#ffffff" fill-opacity="1"><g transform="translate(34.076395, 48.357683)"><g><path d="M 0.6875 -6.890625 L 3.6875 -6.890625 C 4.570312 -6.890625 5.253906 -6.679688 5.734375 -6.265625 C 6.222656 -5.847656 6.46875 -5.253906 6.46875 -4.484375 C 6.46875 -3.679688 6.222656 -3.054688 5.734375 -2.609375 C 5.253906 -2.160156 4.570312 -1.9375 3.6875 -1.9375 L 2.4375 -1.9375 L 2.4375 0 L 0.6875 0 Z M 2.4375 -5.515625 L 2.4375 -3.3125 L 3.609375 -3.3125 C 3.992188 -3.3125 4.289062 -3.40625 4.5 -3.59375 C 4.707031 -3.789062 4.8125 -4.070312 4.8125 -4.4375 C 4.8125 -4.789062 4.707031 -5.054688 4.5 -5.234375 C 4.289062 -5.421875 3.992188 -5.515625 3.609375 -5.515625 Z M 2.4375 -5.515625 "/></g></g></g><g fill="#ffffff" fill-opacity="1"><g transform="translate(42.243198, 48.357683)"><g><path d="M 6.078125 -5.515625 L 2.4375 -5.515625 L 2.4375 -4.140625 L 5.734375 -4.140625 L 5.734375 -2.765625 L 2.4375 -2.765625 L 2.4375 -1.375 L 6.1875 -1.375 L 6.1875 0 L 0.6875 0 L 0.6875 -6.890625 L 6.078125 -6.890625 Z M 6.078125 -5.515625 "/></g></g></g><g fill="#ffffff" fill-opacity="1"><g transform="translate(50.350979, 48.357683)"><g><path d="M 0.6875 -6.890625 L 3.65625 -6.890625 C 4.738281 -6.890625 5.617188 -6.570312 6.296875 -5.9375 C 6.972656 -5.300781 7.3125 -4.472656 7.3125 -3.453125 C 7.3125 -2.429688 6.96875 -1.597656 6.28125 -0.953125 C 5.59375 -0.316406 4.691406 0 3.578125 0 L 0.6875 0 Z M 2.4375 -5.5 L 2.4375 -1.390625 L 3.6875 -1.390625 C 4.226562 -1.390625 4.671875 -1.578125 5.015625 -1.953125 C 5.359375 -2.335938 5.53125 -2.832031 5.53125 -3.4375 C 5.53125 -4.039062 5.347656 -4.535156 4.984375 -4.921875 C 4.628906 -5.304688 4.171875 -5.5 3.609375 -5.5 Z M 2.4375 -5.5 "/></g></g></g><g fill="#ffffff" fill-opacity="1"><g transform="translate(59.373616, 48.357683)"><g><path d="M 2.4375 0 L 0.6875 0 L 0.6875 -6.890625 L 2.4375 -6.890625 Z M 2.4375 0 "/></g></g></g><g fill="#ffffff" fill-opacity="1"><g transform="translate(63.97931, 48.357683)"><g><path d="M 5.265625 -1.265625 L 2.25 -1.265625 L 1.75 0 L -0.046875 0 L 2.921875 -6.890625 L 4.71875 -6.890625 L 7.625 0 L 5.765625 0 Z M 4.75 -2.59375 L 3.765625 -5.140625 L 2.765625 -2.59375 Z M 4.75 -2.59375 "/></g></g></g></svg>